HIERARCHY
ROOT Hips
{
	OFFSET 0.000000 0.000000 0.000000
	CHANNELS 6 Xposition Yposition Zposition Xrotation Yrotation Zrotation
	JOINT Chest
	{
		OFFSET 0.000000 0.009282 11.569106
		CHANNELS 3 Xrotation Yrotation Zrotation
		JOINT Chest2
		{
			OFFSET 0.000000 -0.016863 9.269641
			CHANNELS 3 Xrotation Yrotation Zrotation
			JOINT Chest3
			{
				OFFSET 0.000000 0.000000 8.374491
				CHANNELS 3 Xrotation Yrotation Zrotation
				JOINT Chest4
				{
					OFFSET 0.000000 0.000000 8.374493
					CHANNELS 3 Xrotation Yrotation Zrotation
					JOINT Neck
					{
						OFFSET 0.000000 -0.000001 12.152554
						CHANNELS 3 Xrotation Yrotation Zrotation
						JOINT Head
						{
							OFFSET 0.000000 -0.040100 7.802319
							CHANNELS 3 Xrotation Yrotation Zrotation
							End Site
							{
								OFFSET 0.000000 -0.020946 14.853096
							}
						}
					}
					JOINT RightCollar
					{
						OFFSET -2.894404 0.000000 6.791374
						CHANNELS 3 Xrotation Yrotation Zrotation
						JOINT RightShoulder
						{
							OFFSET -13.574684 0.000000 0.000000
							CHANNELS 3 Xrotation Yrotation Zrotation
							JOINT RightElbow
							{
								OFFSET -23.923903 0.000000 0.000000
								CHANNELS 3 Xrotation Yrotation Zrotation
								JOINT RightWrist
								{
									OFFSET -19.846718 -0.012765 0.000000
									CHANNELS 3 Xrotation Yrotation Zrotation
									End Site
									{
										OFFSET -14.973145 0.000000 0.000000
									}
								}
							}
						}
					}
					JOINT LeftCollar
					{
						OFFSET 2.894404 0.000000 6.791374
						CHANNELS 3 Xrotation Yrotation Zrotation
						JOINT LeftShoulder
						{
							OFFSET 13.574684 0.000000 0.000000
							CHANNELS 3 Xrotation Yrotation Zrotation
							JOINT LeftElbow
							{
								OFFSET 23.923903 0.000000 0.000000
								CHANNELS 3 Xrotation Yrotation Zrotation
								JOINT LeftWrist
								{
									OFFSET 19.846718 -0.012765 0.000000
									CHANNELS 3 Xrotation Yrotation Zrotation
									End Site
									{
										OFFSET 14.973145 0.000000 0.000000
									}
								}
							}
						}
					}
				}
			}
		}
	}
	JOINT RightHip
	{
		OFFSET -9.469263 -0.004642 0.045487
		CHANNELS 3 Xrotation Yrotation Zrotation
		JOINT RightKnee
		{
			OFFSET 0.000000 -0.002666 -40.478676
			CHANNELS 3 Xrotation Yrotation Zrotation
			JOINT RightAnkle
			{
				OFFSET 0.000000 -0.049110 -35.224068
				CHANNELS 3 Xrotation Yrotation Zrotation
				JOINT RightToe
				{
					OFFSET 0.000000 -12.539530 -6.151390
					CHANNELS 3 Xrotation Yrotation Zrotation
					End Site
					{
						OFFSET 0.000000 -5.044995 -1.291870
					}
				}
			}
		}
	}
	JOINT LeftHip
	{
		OFFSET 9.469263 -0.004642 0.045487
		CHANNELS 3 Xrotation Yrotation Zrotation
		JOINT LeftKnee
		{
			OFFSET 0.000000 -0.002666 -40.478676
			CHANNELS 3 Xrotation Yrotation Zrotation
			JOINT LeftAnkle
			{
				OFFSET 0.000000 -0.049110 -35.224068
				CHANNELS 3 Xrotation Yrotation Zrotation
				JOINT LeftToe
				{
					OFFSET 0.000000 -12.539530 -6.151390
					CHANNELS 3 Xrotation Yrotation Zrotation
					End Site
					{
						OFFSET 0.000000 -5.044995 -1.291870
					}
				}
			}
		}
	}
}
MOTION
Frames: 16
Frame Time: 0.016667
-11.676677 0.846164 82.926018 3.796093 5.144273 -117.402100 4.340499 3.038075 3.494156 2.347672 1.508031 1.002913 2.347671 1.508032 1.002914 1.763135 1.127196 0.757945 25.808382 -3.726011 -1.274465 11.662263 -6.541589 -3.186207 4.652755 -8.203582 -13.917713 -69.536448 -72.952813 -42.116336 -12.655642 -38.989797 43.677144 -47.751266 28.185855 62.635478 14.590662 5.712039 -25.625400 -6.756310 69.385289 -37.694257 0.673027 15.458265 -40.881100 -42.521373 -48.435303 -79.571171 0.928524 -1.366384 1.278661 14.801356 -3.495810 -2.074889 -10.873924 -1.902493 1.129985 -0.116095 -0.488897 0.237205 2.188433 -5.306746 -0.062982 23.208272 0.519412 4.140740 -8.865552 -2.979845 7.333265 -7.445334 9.286419 0.454347 
-11.592511 0.956458 82.885277 3.814810 5.172829 -117.061574 4.256754 3.109482 3.696113 2.352402 1.542948 1.054471 2.352404 1.542948 1.054470 1.766867 1.153177 0.796765 25.848663 -3.773675 -1.048934 11.743855 -6.680775 -2.780984 4.574457 -8.445958 -14.134364 -69.782649 -72.919120 -43.322828 -14.127049 -40.006549 42.076492 -47.446985 26.928757 60.412340 14.602743 5.778909 -25.556493 -8.031316 69.464929 -35.075337 0.857619 15.499350 -40.868396 -41.762509 -47.884957 -78.219524 0.877729 -1.455764 1.216253 15.005676 -3.624940 -2.126055 -10.966216 -1.648531 0.965737 -0.159592 -0.481400 0.241563 1.918489 -5.370761 -0.060143 23.665286 0.358990 4.047043 -8.983354 -3.077608 7.256845 -7.345291 9.527474 0.448312 
-11.539781 1.069327 82.844948 3.840594 5.247355 -116.707524 4.182788 3.187707 3.872190 2.344453 1.576681 1.110533 2.344453 1.576680 1.110534 1.761099 1.178278 0.838913 25.901688 -3.812990 -0.826192 11.850067 -6.803919 -2.378143 4.593951 -8.628029 -14.404932 -70.300057 -72.926121 -44.767969 -15.557282 -40.651985 40.458270 -46.839795 25.509203 57.889364 14.706284 5.851372 -25.480664 -9.639901 69.488992 -32.158713 1.085164 15.520142 -40.827449 -40.925223 -47.099707 -76.695798 0.861967 -1.528640 1.128611 15.218239 -3.754072 -2.235499 -11.069607 -1.438523 0.865946 -0.187806 -0.450681 0.235438 1.716320 -5.388969 -0.131587 24.105973 0.202277 4.050079 -9.079296 -3.157450 7.290212 -7.261412 9.771054 0.447250 
-11.492312 1.174687 82.803658 3.870613 5.311030 -116.382161 4.115202 3.252134 4.075068 2.346957 1.606220 1.173697 2.346956 1.606219 1.173696 1.763196 1.200183 0.886400 25.926032 -3.852363 -0.614183 11.903189 -6.924149 -1.996409 4.671069 -8.830602 -14.632396 -71.132138 -72.839569 -46.374874 -16.934341 -41.013930 38.870029 -46.159870 23.997863 55.465442 14.732486 5.935600 -25.353621 -11.015751 69.457184 -29.491104 1.060931 15.722131 -40.680351 -40.025923 -46.219047 -75.216598 0.852441 -1.586009 1.018811 15.439685 -3.888181 -2.323204 -11.198111 -1.264583 0.784304 -0.210071 -0.407546 0.233436 1.520204 -5.418505 -0.250056 24.531842 0.076513 4.106678 -9.184292 -3.257974 7.267962 -7.179141 10.024028 0.443597 
-11.459851 1.279701 82.761444 3.906075 5.396342 -116.042100 4.115716 3.301840 4.253094 2.369233 1.625342 1.237792 2.369233 1.625343 1.237787 1.780107 1.214238 0.934600 25.906378 -3.871727 -0.412646 11.875012 -7.004908 -1.631632 4.603608 -9.076154 -14.729072 -71.738822 -72.565890 -47.712662 -18.428911 -41.272439 37.222202 -45.637654 22.446962 53.136307 14.688889 6.000763 -25.181861 -12.361894 69.545164 -26.983683 0.900136 16.049024 -40.476172 -39.130400 -45.397836 -73.802455 0.872604 -1.634260 0.836429 15.649244 -4.007599 -2.354686 -11.338625 -1.117279 0.713317 -0.214997 -0.354404 0.221752 1.359491 -5.438326 -0.458650 24.944945 0.005158 4.221367 -9.294527 -3.386656 7.283212 -7.094277 10.280568 0.442748 
-11.425768 1.385343 82.716080 3.958342 5.444850 -115.734031 4.092469 3.313614 4.467497 2.395302 1.636852 1.304469 2.395302 1.636850 1.304466 1.799859 1.222554 0.984716 25.874920 -3.874942 -0.218570 11.825367 -7.054429 -1.277465 4.423197 -9.342922 -14.760259 -71.853331 -72.218309 -48.602417 -20.149051 -41.498010 35.458200 -45.244314 20.800002 50.744955 14.560386 6.119461 -24.983078 -13.587780 69.662684 -24.564535 0.643848 16.421124 -40.273329 -38.249578 -44.435076 -72.309976 0.888575 -1.714089 0.619303 15.838727 -4.105511 -2.278255 -11.502928 -0.963998 0.604424 -0.195158 -0.310486 0.203495 1.172490 -5.490675 -0.684134 25.377747 -0.045349 4.404307 -9.446199 -3.512960 7.303640 -6.979381 10.544355 0.436641 
-11.504135 1.536736 82.683670 4.231415 6.011384 -115.965083 4.580119 3.397036 5.192920 2.409977 1.644932 1.365855 2.409977 1.644932 1.365855 1.811046 1.228343 1.030832 25.860703 -3.868216 -0.018195 11.808659 -7.087311 -0.908466 4.175918 -9.596728 -14.818879 -71.496241 -71.905172 -49.114220 -21.888770 -41.629153 33.669708 -45.011042 19.111464 48.285725 14.429847 6.249641 -24.756734 -15.102771 69.779712 -21.767348 0.434847 16.826593 -40.222113 -37.133874 -43.298225 -70.499355 1.505001 -1.764585 0.898623 16.000768 -4.195371 -2.167747 -11.632490 -0.758162 0.451072 -0.203201 -0.311613 0.220195 1.996806 -5.424626 -0.357062 25.324979 -0.106833 4.632266 -9.650771 -3.865141 7.463920 -6.681144 10.967591 0.202751 
-11.506682 1.663457 82.643364 4.340038 6.170642 -115.705071 4.627553 3.430725 5.467893 2.410880 1.660838 1.435047 2.410881 1.660839 1.435050 1.811947 1.239999 1.082787 25.867386 -3.888938 0.179930 11.830743 -7.170020 -0.548684 3.994497 -9.828685 -15.017498 -71.265559 -71.613543 -49.769567 -23.368309 -41.617063 31.990509 -44.766163 17.471991 45.732686 14.454950 6.271941 -24.627517 -17.482489 69.826889 -18.211501 0.306442 17.286983 -40.191504 -35.857557 -41.835199 -68.476929 1.674315 -1.877493 0.738171 16.158792 -4.268716 -2.075432 -11.749968 -0.519082 0.288487 -0.221938 -0.341903 0.232763 2.026545 -5.461162 -0.459385 25.657589 -0.199704 4.741986 -9.820772 -4.058363 7.517202 -6.517739 11.284093 0.152271 
-11.509907 1.788410 82.608154 4.424646 6.323559 -115.404174 4.651750 3.477283 5.705234 2.413780 1.678946 1.501053 2.413780 1.678946 1.501049 1.814343 1.253314 1.132358 25.874032 -3.926389 0.374769 11.852922 -7.282588 -0.198643 3.931981 -10.057664 -15.176626 -71.362254 -71.224325 -50.643326 -24.642667 -41.384980 30.413504 -44.164867 15.756408 42.864024 14.452393 6.324450 -24.502462 -20.047690 69.707668 -14.541418 0.213157 17.774051 -39.991526 -34.688929 -40.597975 -66.745961 1.822070 -1.987165 0.625382 16.317438 -4.342248 -2.030801 -11.843265 -0.237176 0.108179 -0.259059 -0.403567 0.236743 2.045933 -5.493313 -0.511380 25.951124 -0.306105 4.729094 -9.942712 -4.254996 7.656529 -6.356234 11.590801 0.110656 
-11.504687 1.913563 82.578400 4.499580 6.452113 -115.139449 4.675416 3.513441 6.007382 2.433994 1.699195 1.570581 2.433994 1.699193 1.570586 1.829745 1.268175 1.184643 25.854155 -3.992685 0.543805 11.824534 -7.442347 0.096011 3.882887 -10.293531 -15.376598 -71.527879 -70.881852 -51.456381 -25.972365 -40.982607 28.854585 -43.345210 13.927037 39.834964 14.244952 6.427062 -24.360334 -22.006169 69.555266 -11.434780 -0.020347 18.136664 -39.661515 -33.575509 -39.431522 -65.109796 1.948679 -2.116018 0.661505 16.448895 -4.413533 -2.019868 -11.910717 0.089317 -0.107964 -0.293796 -0.486561 0.215725 2.037695 -5.552719 -0.472156 26.234979 -0.397040 4.700318 -10.022730 -4.451316 7.766431 -6.220220 11.893402 0.054568 
-11.503531 2.047329 82.553665 4.577091 6.613378 -114.831872 4.748067 3.517081 6.262037 2.462376 1.709354 1.625615 2.462376 1.709356 1.625613 1.851208 1.275501 1.226034 25.835568 -4.045951 0.690092 11.797881 -7.573146 0.351924 3.715459 -10.506030 -15.493111 -71.420501 -70.506854 -52.025431 -27.258930 -40.510880 27.370124 -42.877906 12.188777 37.021743 14.074110 6.529278 -24.144094 -23.440482 69.561761 -8.958873 -0.559145 18.469135 -39.373390 -32.438870 -37.945410 -63.261458 2.125704 -2.259206 0.726699 16.527483 -4.478855 -1.996542 -11.901228 0.498656 -0.401615 -0.362379 -0.606643 0.205782 2.046387 -5.626114 -0.444872 26.538439 -0.481715 4.709193 -10.092969 -4.602421 7.744792 -6.125219 12.161223 0.029058 
-11.509880 2.188563 82.532745 4.653161 6.796776 -114.491749 4.841883 3.528811 6.495020 2.489927 1.723944 1.674454 2.489927 1.723945 1.674456 1.872045 1.286173 1.262800 25.828135 -4.105802 0.821643 11.791462 -7.712620 0.579909 3.506905 -10.769480 -15.541438 -71.090098 -70.023086 -52.376145 -28.356367 -39.993292 25.975780 -42.698808 10.547419 34.329869 13.966198 6.528339 -23.891213 -24.961775 69.645697 -6.503678 -1.331150 19.017074 -39.154715 -31.157428 -36.217160 -61.117434 2.360599 -2.414395 0.786096 16.537980 -4.519297 -1.971399 -11.842214 0.952648 -0.707539 -0.433548 -0.741603 0.188671 2.054717 -5.699938 -0.456456 26.870340 -0.567133 4.726783 -10.136893 -4.727324 7.679109 -6.079624 12.414386 0.005430 
-11.518275 2.334662 82.514160 4.724783 6.960504 -114.162097 4.920038 3.559834 6.773380 2.516411 1.746827 1.728244 2.516410 1.746828 1.728247 1.892123 1.303041 1.303305 25.821851 -4.191309 0.931524 11.786016 -7.894247 0.762344 3.229946 -11.040806 -15.670561 -70.471351 -69.629448 -52.536592 -29.249582 -39.425904 24.735778 -42.409362 9.017037 31.853318 13.834733 6.446911 -23.685464 -26.975665 69.591520 -3.578053 -2.055675 19.789761 -38.944315 -29.821364 -34.606444 -59.004235 2.595724 -2.579818 0.873414 16.519180 -4.558808 -1.970448 -11.771205 1.427869 -0.977993 -0.488120 -0.866053 0.158509 2.035117 -5.775850 -0.478235 27.206532 -0.651977 4.709024 -10.122546 -4.848853 7.727880 -6.075280 12.672327 -0.036912 
-11.535172 2.473677 82.497223 4.773063 7.125153 -113.779108 4.978914 3.603597 7.012505 2.531773 1.769790 1.782227 2.531773 1.769788 1.782223 1.903860 1.319999 1.343922 25.827319 -4.281166 1.016487 11.801187 -8.078069 0.898690 3.003051 -11.255024 -15.860065 -69.920141 -69.330354 -52.821111 -29.691976 -38.733139 23.814056 -41.916263 7.605913 29.660295 13.750802 6.418264 -23.576987 -29.428772 69.316018 -0.234003 -2.490453 20.499483 -38.743545 -28.723971 -33.278816 -57.179349 2.819535 -2.717959 0.921078 16.500864 -4.611082 -2.017757 -11.663849 1.898883 -1.224003 -0.562991 -0.969335 0.144620 1.989396 -5.833879 -0.548517 27.561871 -0.745763 4.668036 -10.100882 -4.959813 7.696051 -6.114598 12.911685 -0.060562 
-11.557603 2.613273 82.481743 4.818116 7.285863 -113.397956 5.022280 3.617320 7.239708 2.537996 1.779987 1.826426 2.537996 1.779985 1.826429 1.908686 1.327446 1.377134 25.840381 -4.346707 1.074811 11.829059 -8.211193 0.992031 2.902136 -11.431037 -15.966605 -69.592497 -68.958874 -53.241594 -29.762464 -37.920483 23.067215 -41.323526 6.148380 27.573224 13.646864 6.528586 -23.465801 -31.420752 68.959468 2.685839 -2.968770 21.063233 -38.485466 -27.698422 -31.898831 -55.309359 3.037784 -2.848203 0.968227 16.487872 -4.672443 -2.075229 -11.546069 2.347161 -1.459984 -0.639948 -1.034584 0.123651 1.925419 -5.883101 -0.594539 27.946020 -0.848230 4.631077 -10.048178 -5.031744 7.728262 -6.201881 13.125183 -0.064297 
-11.583710 2.740255 82.466957 4.854561 7.430733 -113.056139 5.083623 3.619006 7.507367 2.558670 1.785075 1.867050 2.558669 1.785074 1.867049 1.924323 1.331032 1.407678 25.820466 -4.402078 1.104413 11.793691 -8.319659 1.032794 2.737228 -11.590791 -16.025847 -69.230162 -68.559643 -53.587461 -29.899590 -37.142668 22.254443 -40.814321 4.570702 25.456866 13.526740 6.586115 -23.346468 -33.112361 68.713042 5.197291 -3.753087 21.631713 -38.182721 -26.424388 -30.097205 -52.991353 3.247182 -2.959534 1.026312 16.461275 -4.732525 -2.118033 -11.453295 2.747020 -1.671734 -0.675342 -1.054213 0.083236 1.834319 -5.934535 -0.590704 28.341214 -0.934462 4.596938 -9.938807 -5.100761 7.813840 -6.350230 13.335958 -0.108534 
